<svg xmlns="http://www.w3.org/2000/svg" width="960" height="620" viewBox="0 0 960 620" role="img" aria-labelledby="title desc">
  <title id="title">参考风格图</title>
  <desc id="desc">轻盈白底、橙色点缀、产品展示和界面细节组成的参考风格图。</desc>
  <defs>
    <linearGradient id="hero" x1="0" x2="1" y1="0" y2="1">
      <stop offset="0" stop-color="#fff"/>
      <stop offset=".65" stop-color="#fff7f0"/>
      <stop offset="1" stop-color="#f7f8fa"/>
    </linearGradient>
    <filter id="shadow" x="-20%" y="-20%" width="140%" height="140%">
      <feDropShadow dx="0" dy="18" stdDeviation="20" flood-color="#172033" flood-opacity=".12"/>
    </filter>
  </defs>
  <rect width="960" height="620" rx="36" fill="#fff"/>
  <rect x="0" y="0" width="960" height="310" rx="36" fill="url(#hero)"/>
  <g font-family="Arial, 'PingFang SC', sans-serif">
    <text x="64" y="78" fill="#172033" font-size="30" font-weight="700">Upgrade</text>
    <text x="64" y="113" fill="#172033" font-size="30" font-weight="700">Background</text>
    <text x="64" y="155" fill="#667085" font-size="15">白底留白、轻渐变、橙色点缀</text>
    <text x="64" y="184" fill="#667085" font-size="15">适合生成简洁 UI 设计系统</text>
    <g transform="translate(600 60)" filter="url(#shadow)">
      <path d="M54 200 L254 140 L254 260 L54 320 Z" fill="#3b2b24" opacity=".95"/>
      <rect x="80" y="36" width="190" height="122" rx="8" fill="#fff" stroke="#2c211d" stroke-width="8" transform="rotate(11 175 97)"/>
      <text x="132" y="101" fill="#172033" font-size="16" font-weight="700" transform="rotate(11 175 97)">PLAY</text>
      <text x="132" y="122" fill="#ff6b00" font-size="16" font-weight="700" transform="rotate(11 175 97)">MORE</text>
      <path d="M292 34 C314 38 328 50 336 69" fill="none" stroke="#ff6b00" stroke-width="7" stroke-linecap="round"/>
      <circle cx="132" cy="252" r="18" fill="#ff6b00"/>
      <path d="M117 282 L162 244 L190 292" fill="none" stroke="#d7f0ea" stroke-width="8" stroke-linecap="round"/>
    </g>
  </g>
  <g font-family="Arial, 'PingFang SC', sans-serif" transform="translate(64 340)">
    <text x="0" y="0" fill="#172033" font-size="15" font-weight="700">Before</text>
    <rect x="0" y="22" width="832" height="78" rx="12" fill="#fff" stroke="#e4e7ec"/>
    <g transform="translate(20 42)">
      <rect width="54" height="30" rx="4" fill="#f7f8fa" stroke="#e4e7ec"/>
      <rect x="70" width="54" height="30" rx="4" fill="#f7f8fa" stroke="#e4e7ec"/>
      <rect x="140" width="54" height="30" rx="4" fill="#f7f8fa" stroke="#e4e7ec"/>
      <rect x="210" width="54" height="30" rx="4" fill="#172033" opacity=".18"/>
      <rect x="280" width="54" height="30" rx="4" fill="#172033" opacity=".24"/>
      <rect x="350" width="54" height="30" rx="4" fill="#172033" opacity=".3"/>
      <rect x="420" width="54" height="30" rx="4" fill="#172033" opacity=".38"/>
      <rect x="490" width="54" height="30" rx="4" fill="#172033" opacity=".46"/>
      <rect x="560" width="54" height="30" rx="4" fill="#172033" opacity=".55"/>
      <rect x="630" width="54" height="30" rx="4" fill="#172033" opacity=".66"/>
      <rect x="700" width="54" height="30" rx="4" fill="#172033" opacity=".78"/>
    </g>
    <text x="0" y="148" fill="#ff6b00" font-size="15" font-weight="700">After</text>
    <rect x="0" y="170" width="832" height="78" rx="12" fill="#fff" stroke="#e4e7ec"/>
    <g transform="translate(20 190)">
      <rect width="104" height="28" rx="14" fill="#fff7ed"/>
      <rect x="130" width="104" height="28" rx="14" fill="#fff7ed"/>
      <rect x="260" width="104" height="28" rx="14" fill="#fff7ed"/>
      <rect x="390" width="104" height="28" rx="14" fill="#fff7ed"/>
      <rect x="520" width="104" height="28" rx="14" fill="#fff7ed"/>
      <rect x="650" width="104" height="28" rx="14" fill="#fff7ed"/>
      <circle cx="22" cy="14" r="5" fill="#ff6b00"/>
      <circle cx="152" cy="14" r="5" fill="#ff6b00"/>
      <circle cx="282" cy="14" r="5" fill="#ff6b00"/>
    </g>
  </g>
</svg>
